<svg width="169" height="32" viewBox="0 0 169 32" fill="none" xmlns="http://www.w3.org/2000/svg">
<path fill-rule="evenodd" clip-rule="evenodd" d="M11.9935 1.08063C11.8505 0.779023 11.5062 0.629642 11.1879 0.730297C4.70337 2.77504 0 8.8335 0 15.9938C0 19.9389 1.42943 23.5482 3.79605 26.3381C4.02617 26.6098 4.46222 26.5494 4.61516 26.2282L12.5608 9.55124C12.6657 9.33073 12.9798 9.33144 13.084 9.55231L14.8189 13.2289C14.9516 13.5098 14.9509 13.8356 14.8168 14.1159L7.79911 28.8153C7.60491 29.2226 7.75358 29.7138 8.14589 29.9353C10.468 31.2481 13.1487 32 16.0062 32C19.22 32 22.2097 31.0497 24.7169 29.4193C25.0178 29.2236 25.1287 28.8367 24.9754 28.512L11.9935 1.08063ZM16.1374 0.515117C16.0222 0.272195 16.2036 -0.00629368 16.4721 0.000108358C16.6905 0.00544339 16.9217 0.0125568 17.0725 0.0225155C25.4154 0.571313 32.0127 7.51219 32.0127 15.9938C32.0127 19.5786 30.8329 22.8874 28.8423 25.5553C28.605 25.8732 28.1121 25.8181 27.9424 25.46L16.1374 0.515117Z" fill="#0073CF"/>
<path fill-rule="evenodd" clip-rule="evenodd" d="M71.9429 18.0262C71.9429 20.9384 70.0945 22.5417 66.7381 22.5417C63.3816 22.5417 61.5332 20.9384 61.5332 18.0262V7.86114C61.5332 7.38348 61.1459 6.99615 60.6682 6.99615H59.449C58.9713 6.99615 58.584 7.38348 58.584 7.86114V18.0262C58.584 22.7153 61.6324 25.5148 66.7381 25.5148C71.844 25.5148 74.8921 22.7153 74.8921 18.0262V7.86114C74.8921 7.38348 74.5048 6.99615 74.0271 6.99615H72.8079C72.3302 6.99615 71.9429 7.38348 71.9429 7.86114V18.0262Z" fill="#231F20"/>
<path fill-rule="evenodd" clip-rule="evenodd" d="M130.282 20.5086C129.011 21.81 127.266 22.5419 125.376 22.5419C121.615 22.5419 118.555 19.6525 118.555 16.1008C118.555 12.2588 121.414 9.46967 125.353 9.46967C127.016 9.46967 128.618 10.0259 129.837 11.0353C129.911 11.0965 129.978 11.1523 130.037 11.2046C130.332 11.4614 130.78 11.4251 131.033 11.1278L132.007 9.98752C132.267 9.68236 132.236 9.22497 131.936 8.95821C131.824 8.85827 131.694 8.74695 131.548 8.62887C129.819 7.22504 127.659 6.47351 125.376 6.47351C119.744 6.47351 115.212 11.0656 115.661 16.5397C116.091 21.7829 120.551 25.7397 125.806 25.5046C128.169 25.3987 130.404 24.4686 132.106 22.8933C132.169 22.8343 132.257 22.7461 132.35 22.6504C132.642 22.3524 132.673 21.8868 132.426 21.5514L131.549 20.356C131.291 20.0046 130.777 19.9754 130.482 20.2959C130.403 20.3819 130.332 20.4577 130.282 20.5086Z" fill="#231F20"/>
<path fill-rule="evenodd" clip-rule="evenodd" d="M163.624 14.3434C162.903 14.2025 160.935 14.1054 159.76 14.0471C159.371 14.0279 159.064 14.0126 158.982 14.0044C157.305 13.8316 156.491 13.2419 156.491 12.2026C156.491 10.7469 158.112 9.47001 159.96 9.47001C161.924 9.47001 163.184 9.87583 164.815 11.0972C164.888 11.152 165.021 11.2562 165.15 11.3583C165.345 11.513 165.628 11.4849 165.79 11.2949L167.067 9.79225C167.228 9.60339 167.21 9.32134 167.029 9.15275C166.906 9.03823 166.777 8.92015 166.702 8.85577C164.808 7.23321 162.648 6.47314 159.96 6.47314C155.805 6.47314 153.233 9.4597 153.233 12.2264C153.233 14.9608 155.059 16.5901 158.513 16.9376C159.119 16.9985 159.903 17.017 160.661 17.0344C161.496 17.0536 162.284 17.0721 162.719 17.1453C164.312 17.4135 165.023 18.1473 165.023 19.5237C165.023 21.4411 162.875 22.1265 161.952 22.3321C161.316 22.474 159.104 22.6792 157.604 22.0881C156.694 21.7306 155.86 21.1392 155.067 20.2888C155.011 20.229 154.911 20.1148 154.813 20.0003C154.66 19.8228 154.391 19.8082 154.22 19.9683L152.745 21.3486C152.553 21.5286 152.532 21.8263 152.699 22.0305C152.798 22.1528 152.9 22.2755 152.963 22.3452C154.083 23.5972 155.49 24.5109 157.068 25.0056C158.087 25.325 159.253 25.4264 160.272 25.4264C161.365 25.4264 162.289 25.3097 162.682 25.2194C166.054 24.4462 168.067 22.3168 168.067 19.5237C168.067 16.5005 166.738 14.9512 163.624 14.3434Z" fill="#231F20"/>
<path fill-rule="evenodd" clip-rule="evenodd" d="M87.1798 6.99628H78.792C78.3503 6.99628 78.0533 7.44976 78.2301 7.85486L78.8802 9.34476C79.0517 9.73849 79.4408 9.99279 79.8704 9.99279H87.2032C91.0082 9.99279 92.741 13.1959 92.741 16.1722C92.741 19.5731 90.3811 22.1375 87.2513 22.1375H85.5373C85.2033 22.1375 84.9334 22.4081 84.9334 22.7417V24.5066C84.9334 24.8402 85.2033 25.1105 85.5373 25.1105H87.2513C89.7712 25.1105 91.451 24.4113 93.0472 22.6976C94.7317 20.915 95.7379 18.4047 95.7379 15.9823C95.7379 10.9431 91.9785 6.99628 87.1798 6.99628Z" fill="#231F20"/>
<path fill-rule="evenodd" clip-rule="evenodd" d="M80.499 12.2128V24.4084C80.499 24.796 80.8134 25.1105 81.2011 25.1105H82.7223C83.1103 25.1105 83.4248 24.796 83.4248 24.4084L83.4244 12.2128C83.4244 11.8252 83.11 11.5107 82.7223 11.5107H81.2011C80.8134 11.5107 80.499 11.8252 80.499 12.2128Z" fill="#231F20"/>
<path fill-rule="evenodd" clip-rule="evenodd" d="M141.323 17.6309H148.731C148.99 17.6309 149.192 17.4058 149.163 17.1483L148.943 15.1366C148.912 14.8506 148.67 14.6344 148.383 14.6344H141.247C140.946 14.6344 140.703 14.878 140.703 15.1782V17.011C140.703 17.3531 140.981 17.6309 141.323 17.6309Z" fill="#231F20"/>
<path fill-rule="evenodd" clip-rule="evenodd" d="M139.187 21.653V10.5515C139.187 10.2432 139.437 9.99314 139.745 9.99314H147.847C148.131 9.99314 148.353 9.74631 148.322 9.46355L148.113 7.5529C148.078 7.236 147.811 6.99628 147.492 6.99628H136.9C136.521 6.99628 136.214 7.30322 136.214 7.68165V24.4223C136.214 24.8021 136.522 25.1105 136.903 25.1105H149.415C149.746 25.1105 150.004 24.8228 149.968 24.4931L149.767 22.6582C149.734 22.3619 149.484 22.1375 149.186 22.1375H139.672C139.404 22.1375 139.187 21.9209 139.187 21.653Z" fill="#231F20"/>
<path fill-rule="evenodd" clip-rule="evenodd" d="M44.951 7.39983L53.0457 24.5537C53.204 24.8895 53.5415 25.1032 53.9125 25.1032H55.8071C56.1873 25.1032 56.4384 24.7077 56.2759 24.3635L48.1702 7.18536C48.0187 6.86454 47.6957 6.66003 47.3411 6.66003H45.4202C45.0396 6.66003 44.7889 7.05589 44.951 7.39983Z" fill="#231F20"/>
<path fill-rule="evenodd" clip-rule="evenodd" d="M38.8316 25.1034H40.8169C41.1047 25.1034 41.3664 24.9377 41.4891 24.6777L46.2352 14.6329C46.3831 14.3192 46.3835 13.956 46.2352 13.6423L45.1241 11.2871C44.9982 11.0207 44.6194 11.0207 44.4935 11.2871L38.3365 24.322C38.1651 24.6851 38.43 25.1034 38.8316 25.1034Z" fill="#231F20"/>
<path fill-rule="evenodd" clip-rule="evenodd" d="M103.369 7.39983L111.464 24.5537C111.622 24.8895 111.959 25.1032 112.33 25.1032H114.225C114.605 25.1032 114.856 24.7077 114.694 24.3635L106.588 7.18536C106.437 6.86454 106.114 6.66003 105.759 6.66003H103.838C103.458 6.66003 103.207 7.05589 103.369 7.39983Z" fill="#231F20"/>
<path fill-rule="evenodd" clip-rule="evenodd" d="M97.2498 25.1034H99.2351C99.5229 25.1034 99.7846 24.9377 99.9074 24.6777L104.653 14.6329C104.801 14.3192 104.802 13.956 104.654 13.6423L103.542 11.2871C103.417 11.0207 103.038 11.0207 102.912 11.2871L96.7547 24.322C96.5833 24.6851 96.8482 25.1034 97.2498 25.1034Z" fill="#231F20"/>
</svg>
