<svg width="36" height="36" viewBox="0 0 36 36" fill="none" xmlns="http://www.w3.org/2000/svg">
<path fill-rule="evenodd" clip-rule="evenodd" d="M13.4874 1.21523C13.3266 0.876054 12.9394 0.708067 12.5814 0.821258C5.28919 3.12068 0 9.93375 0 17.9859C0 22.4224 1.60748 26.4813 4.26887 29.6186C4.52765 29.9242 5.01801 29.8562 5.19 29.495L14.1253 10.7409C14.2433 10.4929 14.5965 10.4937 14.7137 10.7421L16.6647 14.8766C16.8139 15.1925 16.8131 15.5589 16.6623 15.8741L8.77052 32.4044C8.55213 32.8624 8.71932 33.4147 9.16049 33.6639C11.7719 35.1402 14.7864 35.9857 17.9998 35.9857C21.6139 35.9857 24.9761 34.917 27.7954 33.0835C28.1338 32.8636 28.2586 32.4284 28.0862 32.0632L13.4874 1.21523ZM18.1474 0.579277C18.0178 0.306098 18.2218 -0.00707758 18.5238 0.000121855C18.7693 0.00612139 19.0293 0.0141208 19.1989 0.0253199C28.581 0.642472 36 8.44786 36 17.9859C36 22.0172 34.6733 25.7381 32.4347 28.7383C32.1679 29.0959 31.6135 29.0339 31.4228 28.6311L18.1474 0.579277Z" fill="#056FD2"/>
</svg>
