<svg width="24" height="24" viewBox="0 0 24 24" fill="none" xmlns="http://www.w3.org/2000/svg">
<path fill-rule="evenodd" clip-rule="evenodd" d="M19.9601 13.4705C20.2989 13.6505 20.5603 13.9347 20.7443 14.2189C21.1025 14.8063 21.0735 15.5263 20.7249 16.161L20.0472 17.2979C19.689 17.9042 19.0209 18.2831 18.3335 18.2831C17.9947 18.2831 17.6171 18.1884 17.3073 17.9989C17.0556 17.8379 16.7651 17.781 16.4553 17.781C15.4968 17.781 14.6932 18.5673 14.6642 19.5052C14.6642 20.5947 13.7735 21.4473 12.6601 21.4473H11.3434C10.2203 21.4473 9.32959 20.5947 9.32959 19.5052C9.31023 18.5673 8.50665 17.781 7.54816 17.781C7.22867 17.781 6.93822 17.8379 6.69618 17.9989C6.38636 18.1884 5.99909 18.2831 5.66992 18.2831C4.97284 18.2831 4.3048 17.9042 3.94658 17.2979L3.27854 16.161C2.92032 15.5452 2.90096 14.8063 3.25918 14.2189C3.41409 13.9347 3.70454 13.6505 4.03372 13.4705C4.3048 13.3379 4.47907 13.12 4.64366 12.8642C5.12774 12.0494 4.83729 10.9789 4.01435 10.4958C3.05587 9.95577 2.74605 8.75261 3.29791 7.81472L3.94658 6.69683C4.50812 5.75894 5.70864 5.42736 6.67681 5.97683C7.51912 6.43157 8.61315 6.12841 9.10691 5.32315C9.26182 5.05789 9.34895 4.77368 9.32959 4.48947C9.31023 4.12 9.41673 3.76947 9.60068 3.48526C9.9589 2.89789 10.6076 2.51895 11.3143 2.5H12.6795C13.3959 2.5 14.0446 2.89789 14.4028 3.48526C14.5771 3.76947 14.6932 4.12 14.6642 4.48947C14.6448 4.77368 14.732 5.05789 14.8869 5.32315C15.3806 6.12841 16.4747 6.43157 17.3267 5.97683C18.2851 5.42736 19.4953 5.75894 20.0472 6.69683L20.6959 7.81472C21.2574 8.75261 20.9476 9.95577 19.9794 10.4958C19.1565 10.9789 18.866 12.0494 19.3598 12.8642C19.5147 13.12 19.689 13.3379 19.9601 13.4705ZM9.26189 12.5359C9.26189 14.0233 10.4915 15.2075 12.0115 15.2075C13.5315 15.2075 14.732 14.0233 14.732 12.5359C14.732 11.0485 13.5315 9.85487 12.0115 9.85487C10.4915 9.85487 9.26189 11.0485 9.26189 12.5359Z" fill="#2B2C33"/>
</svg>
