<svg width="24" height="24" viewBox="0 0 24 24" fill="none" xmlns="http://www.w3.org/2000/svg">
<path fill-rule="evenodd" clip-rule="evenodd" d="M8.89535 11.23C8.45785 11.23 8.11192 11.57 8.11192 12C8.11192 12.42 8.45785 12.77 8.89535 12.77H15V17.55C15 20 12.9753 22 10.4724 22H6.51744C4.02471 22 2 20.01 2 17.56V6.45C2 3.99 4.03488 2 6.52762 2H10.4927C12.9753 2 15 3.99 15 6.44V11.23H8.89535ZM18.85 8.49998L21.77 11.41C21.92 11.56 22 11.75 22 11.96C22 12.16 21.92 12.36 21.77 12.5L18.85 15.41C18.7 15.56 18.5 15.64 18.31 15.64C18.11 15.64 17.91 15.56 17.76 15.41C17.46 15.11 17.46 14.62 17.76 14.32L19.36 12.7702H15.0002V11.2302H19.36L17.76 9.59998C17.46 9.29998 17.46 8.80998 17.76 8.50998C18.06 8.19998 18.55 8.19998 18.85 8.49998Z" fill="#2B2C33"/>
</svg>
