<svg width="24" height="24" viewBox="0 0 24 24" fill="none" xmlns="http://www.w3.org/2000/svg">
<path d="M12.8988 2.9425C12.8996 2.92702 12.9 2.91149 12.9 2.89586C12.9 2.40107 12.497 2 12 2C11.503 2 11.1 2.40107 11.1 2.89586C11.1 2.91149 11.1004 2.92708 11.1012 2.94255C8.08832 3.37479 5.2533 6.74759 5.70001 10.5106C5.7744 11.1373 5.20288 11.2196 4.4446 11.8546C3.72807 12.4547 2.98507 13.0769 3.00023 14.1993C3.00023 15.7724 3.90001 16.6249 5.22144 17.0476C5.22144 17.0476 7.64162 17.9686 12.0001 17.9686C16.3586 17.9686 18.7788 17.0476 18.7788 17.0476C20.1002 16.6249 21.0002 15.729 21 14.1993C20.9999 13.0672 20.2573 12.4447 19.5448 11.8475C18.7899 11.2147 18.2244 11.1498 18.3002 10.5106C18.7469 6.74748 15.9118 3.37462 12.8988 2.9425Z" fill="#9395A3"/>
<path d="M8.78464 19.0437C8.38693 19.3405 8.3064 19.902 8.60457 20.2978C10.3146 22.5674 13.7346 22.5674 15.4447 20.2978C15.7428 19.902 15.6623 19.3405 15.2646 19.0437C14.867 18.7468 14.3028 18.827 14.0046 19.2229C13.0146 20.5367 11.0346 20.5367 10.0447 19.2229C9.74638 18.827 9.18223 18.7468 8.78464 19.0437Z" fill="#9395A3"/>
</svg>
